<svg id="Tram" xmlns="http://www.w3.org/2000/svg" viewBox="0 0 2439.08 12463.64"><defs><style>.cls-1{fill:#9b102d;}.cls-2{fill:#cd113e;}.cls-3{fill:#00475c;}.cls-3,.cls-5{stroke:#fff;stroke-miterlimit:10;stroke-width:3px;}.cls-4,.cls-5{fill:#053a50;}.cls-6{fill:#ededed;}.cls-7{fill:#4c4d4c;}.cls-8{fill:#676868;}.cls-9{fill:#ffde00;}.cls-10{fill:#fdc60e;}.cls-11{fill:#1d1d1b;}.cls-12{fill:#3c3c3b;}.cls-13{fill:#c6c6c6;}</style></defs><path class="cls-1" d="M155.64,278.29,711.37,124a229.21,229.21,0,0,1,61-8.35L1647,114.2a228.88,228.88,0,0,1,62.18,8.49l541.38,151.56A229.28,229.28,0,0,1,2418,494.66l15.23,9402.82a275.64,275.64,0,0,1-73.11,187.41l-463.87,457.47a275.64,275.64,0,0,1-202.09,88.67l-927.71,1.5a275.58,275.58,0,0,1-198.26-83.68L80.76,10089.46A275.61,275.61,0,0,1,2.94,9898L-12.29,499.57A229.26,229.26,0,0,1,155.64,278.29Z"/><path class="cls-2" d="M157.67,1532.93l555.41-351.38a246.29,246.29,0,0,1,61-7.77l874.67-1.41a245.48,245.48,0,0,1,62.18,7.87l541.7,348.7c98.88,25.68,167.61,312.72,167.76,408l12.48,7704.14c.11,64.46-26,126.58-73.12,173.94l-463.93,424.6c-52.09,52.36-125.33,82.19-202.1,82.32l-927.71,1.5c-74.7.12-146.24-27.9-198.25-77.64L80.32,9819.54c-49.79-47.63-77.69-111.35-77.8-177.72l-12.47-7700C-10.11,1846.07,58.29,1558.55,157.67,1532.93Z"/><path class="cls-3" d="M926.1,9302.82l582.06-.94a135,135,0,0,1,130.69,100.18l158.18,592c22.89,85.66-41.58,169.76-130.25,169.9l-896.5,1.46c-88.66.14-153.41-83.75-130.8-169.49l156.26-592.5A135.05,135.05,0,0,1,926.1,9302.82Z"/><path class="cls-4" d="M1569.2,9322.31c-18-8.68-36.59-17-57.53-16.94l-582.06.94a135,135,0,0,0-130.36,100.61L643,9999.42c-10.56,40,2.58,78.53,23.67,109.39Z"/><path class="cls-5" d="M139.68,9113.65,680.8,9480.42a43.66,43.66,0,0,1,16.55,34.15L594,9960.22c.05,36.54-42.12,57-70.76,34.29l-437-346.13a43.63,43.63,0,0,1-16.55-34.15l-.76-466.29C68.86,9111.4,111,9091,139.68,9113.65Z"/><path class="cls-5" d="M2300,9110.15l-539.93,368.52a43.65,43.65,0,0,0-16.44,34.2l104.78,445.32c.06,36.54,42.29,56.84,70.86,34.06l435.91-347.54a43.67,43.67,0,0,0,16.44-34.21l-.75-466.29C2370.83,9107.67,2328.59,9087.37,2300,9110.15Z"/><path class="cls-6" d="M501.5,1644.22,1908,1641.94c137.35-.22,249.9,104.7,250.11,233.16l10.74,6630.71c.21,128.46-112,233.75-249.35,234L513,8742.06c-137.35.22-249.9-104.7-250.11-233.16L252.15,1878.18C251.94,1749.72,364.15,1644.44,501.5,1644.22Z"/><rect class="cls-7" x="373.36" y="1795.86" width="1674.14" height="6740.77" rx="69.15" transform="translate(-8.37 1.97) rotate(-0.09)"/><rect class="cls-8" x="882.09" y="1788.97" width="656.67" height="6747.66" transform="matrix(1, 0, 0, 1, -8.36, 1.97)"/><path class="cls-3" d="M909.8,1103.06l582.06-.94a135,135,0,0,0,130.36-100.61L1778.48,409c22.61-85.74-42.13-169.63-130.8-169.49L751.18,241c-88.66.14-153.14,84.24-130.25,169.9l158.18,592A135,135,0,0,0,909.8,1103.06Z"/><path class="cls-4" d="M1554,1081.13a134.15,134.15,0,0,1-58.74,13.93l-582.06.94A135,135,0,0,1,782.54,995.82l-158.18-592c-10.69-40,4.83-77.29,25.83-108.23Z"/><path class="cls-5" d="M124,1294.78,663.92,926.26a43.68,43.68,0,0,0,16.44-34.2L575.58,446.74c-.06-36.54-42.3-56.84-70.87-34.06L68.8,760.22a43.7,43.7,0,0,0-16.44,34.21l.76,466.29C53.18,1297.26,95.42,1317.56,124,1294.78Z"/><path class="cls-5" d="M2284.33,1291.28,1743.21,924.51a43.66,43.66,0,0,1-16.55-34.15L1830,444.71c-.06-36.54,42.12-57,70.76-34.29l437,346.13a43.63,43.63,0,0,1,16.55,34.15l.76,466.29C2355.15,1293.53,2313,1314,2284.33,1291.28Z"/><path class="cls-6" d="M925,7647.22l578.93-.94c137.35-.22,249.55-112.78,249.32-250.13l-2-1217.17c-.22-137.35-112.78-249.54-250.13-249.32l-578.94.94c-137.35.22-249.54,112.78-249.32,250.13l2,1217.16C675.07,7535.25,787.63,7647.44,925,7647.22ZM821.82,6417c-.23-137.35,112-249.91,249.32-250.13l281.83-.46c137.35-.22,249.91,112,250.13,249.33l1.21,744.21c.22,137.36-112,249.92-249.33,250.14l-281.82.45c-137.35.23-249.92-112-250.14-249.32Z"/><path class="cls-9" d="M1104.89,1202.77l198.24-.32c42.93-.07,80.79,28.31,84.72,64.74l27,249.8c5.39,50-33.34,92.47-86.76,92.56l-246.74.4c-53.42.08-92.29-42.27-87.06-92.28l26.15-249.88C1024.2,1231.34,1062,1202.84,1104.89,1202.77Z"/><path class="cls-9" d="M1117.89,9229.25l198.25-.32c42.92-.07,80.69-28.56,84.5-65L1426.78,8914c5.23-50-33.63-92.36-87.06-92.27l-246.73.4c-53.42.08-92.16,42.57-86.76,92.55l27,249.8C1037.11,9201,1075,9229.32,1117.89,9229.25Z"/><path class="cls-10" d="M1339.19,8821.76l-246.73.4c-53.43.09-92.16,42.57-86.76,92.55l27,249.8"/><path class="cls-11" d="M1161,9117.8c6.68.36,14.31,0,24.7-.61,17.74-1.37,34.61-5.47,48-12.51,16.33-8.21,29.44-20.94,36.63-39.7h-1.19c-15.68,11-36.38,17.18-61.53,17.22-45.3.08-79.56-21.66-87.13-53.22-10-41.76,15.69-79.73,85.93-85.86,72-6.29,118.25,43.76,105.49,98.39-8.75,37.47-31.52,59.79-56.37,72.3-18.18,9.26-41.76,14.68-65.2,16.13a257.44,257.44,0,0,1-27,.92Zm-2-90.75c3.46,23.74,25.51,38.84,56.27,38.79,23.9,0,43.31-7.62,54.16-18.28a14.6,14.6,0,0,0,4.65-9.2c4.87-35.51-21.23-70.46-68-66.61C1168.53,8974.84,1154.49,8996.34,1159,9027.05Z"/><path class="cls-10" d="M1328,1609.55l-246.74.4c-53.42.08-92.29-42.27-87.06-92.28l26.15-249.88"/><path class="cls-11" d="M1259.19,1313.91c-6.67-.36-14.31,0-24.69.61-17.75,1.36-34.61,5.46-48,12.51-16.34,8.21-29.45,20.94-36.63,39.7H1151c15.67-11,36.37-17.18,61.53-17.22,45.3-.07,79.56,21.66,87.12,53.22,10,41.76-15.68,79.74-85.92,85.87-72,6.29-118.25-43.76-105.5-98.39,8.75-37.48,31.53-59.79,56.38-72.3,18.17-9.26,41.76-14.69,65.2-16.13a260.42,260.42,0,0,1,27-.93Zm2,90.74c-3.46-23.74-25.5-38.83-56.26-38.78-23.9,0-43.31,7.61-54.16,18.28a14.53,14.53,0,0,0-4.65,9.19c-4.87,35.52,21.22,70.47,68,66.62C1251.67,1456.87,1265.71,1435.36,1261.24,1404.65Z"/><rect class="cls-12" x="1019.68" y="6888.85" width="23.05" height="1469.85" transform="translate(-12.35 1.68) rotate(-0.09)"/><rect class="cls-12" x="1389.66" y="6888.25" width="23.05" height="1469.85" transform="translate(-12.35 2.28) rotate(-0.09)"/><rect class="cls-12" x="497.59" y="8358.71" width="1436.06" height="23.05" transform="translate(-13.56 1.98) rotate(-0.09)"/><path class="cls-6" d="M1353.78,10471.51c.11,68-58.9,123.15-131.8,123.27s-132.09-54.88-132.2-122.84"/><path class="cls-13" d="M1336.45,10471.61l-246.67.14a116.52,116.52,0,0,0,21.23,66.71Z"/></svg>